<mxfile host="app.diagrams.net" modified="2023-04-13T22:22:46.538Z" agent="Mozilla/5.0 (Windows NT 10.0; Win64; x64) AppleWebKit/537.36 (KHTML, like Gecko) Chrome/111.0.0.0 Safari/537.36" etag="8Ep9p8c-QO6OG4XUbx5x" version="21.1.7" type="device">
  <diagram name="Page-1" id="NKXKmSumOXYd5oadqaQw">
    <mxGraphModel dx="2222" dy="747" grid="1" gridSize="10" guides="1" tooltips="1" connect="1" arrows="1" fold="1" page="1" pageScale="1" pageWidth="850" pageHeight="1100" math="0" shadow="0">
      <root>
        <mxCell id="0" />
        <mxCell id="1" parent="0" />
        <mxCell id="MSEIYFs3sw8xI1VDQBk2-6" value="" style="rounded=0;whiteSpace=wrap;html=1;fontSize=30;fillColor=#d5e8d4;strokeColor=#82b366;" parent="1" vertex="1">
          <mxGeometry x="326" y="530" width="280" height="220" as="geometry" />
        </mxCell>
        <mxCell id="MSEIYFs3sw8xI1VDQBk2-42" value="" style="rounded=0;whiteSpace=wrap;html=1;fillColor=none;" parent="1" vertex="1">
          <mxGeometry x="474" y="577" width="101" height="53" as="geometry" />
        </mxCell>
        <mxCell id="k9w5RPRXAu7w9y0sjW1R-39" value="" style="pointerEvents=1;verticalLabelPosition=bottom;shadow=0;dashed=0;align=center;html=1;verticalAlign=top;shape=mxgraph.electrical.signal_sources.source;aspect=fixed;points=[[0.5,0,0],[1,0.5,0],[0.5,1,0],[0,0.5,0]];elSignalType=dc1;fillColor=#b0e3e6;strokeColor=#0e8088;" parent="1" vertex="1">
          <mxGeometry x="11" y="456.99" width="70" height="70" as="geometry" />
        </mxCell>
        <mxCell id="MSEIYFs3sw8xI1VDQBk2-1" value="" style="verticalLabelPosition=bottom;html=1;verticalAlign=top;align=center;strokeColor=none;fillColor=#00BEF2;shape=mxgraph.azure.computer;pointerEvents=1;" parent="1" vertex="1">
          <mxGeometry x="3" y="730" width="74" height="70" as="geometry" />
        </mxCell>
        <mxCell id="MSEIYFs3sw8xI1VDQBk2-2" value="Display Unit" style="text;html=1;strokeColor=none;fillColor=none;align=center;verticalAlign=middle;whiteSpace=wrap;rounded=0;fontSize=20;" parent="1" vertex="1">
          <mxGeometry x="-20" y="820" width="120" height="30" as="geometry" />
        </mxCell>
        <mxCell id="MSEIYFs3sw8xI1VDQBk2-4" value="Raw Audio (30 samples)&lt;br&gt;&amp;amp; Text (100 words)" style="text;html=1;strokeColor=none;fillColor=none;align=center;verticalAlign=middle;whiteSpace=wrap;rounded=0;fontSize=20;" parent="1" vertex="1">
          <mxGeometry x="156" y="440" width="234" height="30" as="geometry" />
        </mxCell>
        <mxCell id="MSEIYFs3sw8xI1VDQBk2-5" value="Alignment File" style="text;html=1;strokeColor=none;fillColor=none;align=center;verticalAlign=middle;whiteSpace=wrap;rounded=0;fontSize=20;" parent="1" vertex="1">
          <mxGeometry x="156" y="770" width="130" height="30" as="geometry" />
        </mxCell>
        <mxCell id="MSEIYFs3sw8xI1VDQBk2-7" value="Smart Gateway" style="text;html=1;strokeColor=none;fillColor=none;align=center;verticalAlign=middle;whiteSpace=wrap;rounded=0;fontSize=25;fontColor=#0072CE;fontStyle=1" parent="1" vertex="1">
          <mxGeometry x="306" y="530" width="230" height="30" as="geometry" />
        </mxCell>
        <mxCell id="MSEIYFs3sw8xI1VDQBk2-8" value="Source" style="text;html=1;strokeColor=none;fillColor=none;align=center;verticalAlign=middle;whiteSpace=wrap;rounded=0;fontSize=20;" parent="1" vertex="1">
          <mxGeometry x="-14" y="530" width="120" height="30" as="geometry" />
        </mxCell>
        <mxCell id="MSEIYFs3sw8xI1VDQBk2-10" value="&lt;font style=&quot;font-size: 20px;&quot;&gt;raw audio &amp;amp; text&lt;/font&gt;" style="text;html=1;strokeColor=none;fillColor=none;align=center;verticalAlign=middle;whiteSpace=wrap;rounded=0;fontSize=18;fontColor=#000000;" parent="1" vertex="1">
          <mxGeometry x="449.59" y="631.99" width="149.82" height="20" as="geometry" />
        </mxCell>
        <mxCell id="MSEIYFs3sw8xI1VDQBk2-11" value="" style="endArrow=classic;html=1;rounded=0;fontSize=20;fontColor=#000000;fillColor=#b1ddf0;strokeColor=#000000;strokeWidth=2;exitX=0.465;exitY=-0.045;exitDx=0;exitDy=0;exitPerimeter=0;" parent="1" source="MSEIYFs3sw8xI1VDQBk2-42" edge="1">
          <mxGeometry width="50" height="50" relative="1" as="geometry">
            <mxPoint x="606" y="578" as="sourcePoint" />
            <mxPoint x="1186" y="595" as="targetPoint" />
            <Array as="points">
              <mxPoint x="521" y="450" />
              <mxPoint x="1086" y="450" />
              <mxPoint x="1086" y="595" />
            </Array>
          </mxGeometry>
        </mxCell>
        <mxCell id="MSEIYFs3sw8xI1VDQBk2-12" value="&lt;br&gt;&lt;span style=&quot;font-size: 20px;&quot;&gt;&lt;b&gt;&lt;br&gt;&lt;/b&gt;&lt;/span&gt;" style="edgeLabel;html=1;align=center;verticalAlign=middle;resizable=0;points=[];fontSize=18;fontColor=#000000;" parent="MSEIYFs3sw8xI1VDQBk2-11" vertex="1" connectable="0">
          <mxGeometry x="0.4741" y="1" relative="1" as="geometry">
            <mxPoint as="offset" />
          </mxGeometry>
        </mxCell>
        <mxCell id="MSEIYFs3sw8xI1VDQBk2-13" value="" style="endArrow=classic;html=1;rounded=0;fontSize=18;fontColor=#FF0000;fillColor=#b1ddf0;strokeColor=#000000;strokeWidth=2;entryX=-0.007;entryY=0.683;entryDx=0;entryDy=0;entryPerimeter=0;exitX=1.011;exitY=0.614;exitDx=0;exitDy=0;exitPerimeter=0;" parent="1" source="MSEIYFs3sw8xI1VDQBk2-42" target="MSEIYFs3sw8xI1VDQBk2-23" edge="1">
          <mxGeometry width="50" height="50" relative="1" as="geometry">
            <mxPoint x="580" y="610" as="sourcePoint" />
            <mxPoint x="806" y="617" as="targetPoint" />
          </mxGeometry>
        </mxCell>
        <mxCell id="MSEIYFs3sw8xI1VDQBk2-14" value="&lt;br&gt;&lt;font color=&quot;#000000&quot;&gt;&lt;span style=&quot;font-size: 20px;&quot;&gt;&lt;b&gt;&lt;br&gt;&lt;/b&gt;&lt;/span&gt;&lt;/font&gt;" style="edgeLabel;html=1;align=center;verticalAlign=middle;resizable=0;points=[];fontSize=25;fontColor=#FF0000;" parent="MSEIYFs3sw8xI1VDQBk2-13" vertex="1" connectable="0">
          <mxGeometry x="0.2515" y="-2" relative="1" as="geometry">
            <mxPoint x="1" as="offset" />
          </mxGeometry>
        </mxCell>
        <mxCell id="MSEIYFs3sw8xI1VDQBk2-15" value="" style="points=[];aspect=fixed;html=1;align=center;shadow=0;dashed=0;image;image=img/lib/allied_telesis/security/Router_VPN.svg;fontSize=25;fontColor=#FF0000;" parent="1" vertex="1">
          <mxGeometry x="361" y="616.99" width="70.47" height="50" as="geometry" />
        </mxCell>
        <mxCell id="MSEIYFs3sw8xI1VDQBk2-17" value="20 samples,&lt;br style=&quot;border-color: var(--border-color); font-size: 20px;&quot;&gt;&lt;span style=&quot;font-size: 20px;&quot;&gt;70 words&lt;/span&gt;" style="text;html=1;strokeColor=none;fillColor=none;align=center;verticalAlign=middle;whiteSpace=wrap;rounded=0;fontSize=20;fontColor=#000000;" parent="1" vertex="1">
          <mxGeometry x="636.75" y="396.99" width="135.5" height="43.01" as="geometry" />
        </mxCell>
        <mxCell id="MSEIYFs3sw8xI1VDQBk2-21" value="&lt;font style=&quot;font-size: 20px;&quot;&gt;alignment file&lt;/font&gt;" style="text;html=1;strokeColor=none;fillColor=none;align=center;verticalAlign=middle;whiteSpace=wrap;rounded=0;fontSize=18;fontColor=#000000;" parent="1" vertex="1">
          <mxGeometry x="446" y="720" width="135" height="20" as="geometry" />
        </mxCell>
        <mxCell id="MSEIYFs3sw8xI1VDQBk2-22" value="" style="ellipse;shape=cloud;whiteSpace=wrap;html=1;fontSize=15;fontColor=#FF0000;strokeColor=#0080f0;strokeWidth=2;" parent="1" vertex="1">
          <mxGeometry x="1164" y="506.99" width="220" height="160" as="geometry" />
        </mxCell>
        <mxCell id="MSEIYFs3sw8xI1VDQBk2-23" value="" style="html=1;verticalLabelPosition=bottom;align=center;labelBackgroundColor=#ffffff;verticalAlign=top;strokeWidth=2;strokeColor=#0080F0;shadow=0;dashed=0;shape=mxgraph.ios7.icons.cloud;fontSize=15;fontColor=#FF0000;" parent="1" vertex="1">
          <mxGeometry x="816" y="520" width="182" height="130" as="geometry" />
        </mxCell>
        <mxCell id="MSEIYFs3sw8xI1VDQBk2-24" value="Fog" style="text;html=1;strokeColor=none;fillColor=none;align=center;verticalAlign=middle;whiteSpace=wrap;rounded=0;fontSize=25;fontColor=#0072CE;fontStyle=1" parent="1" vertex="1">
          <mxGeometry x="796" y="479" width="230" height="30" as="geometry" />
        </mxCell>
        <mxCell id="MSEIYFs3sw8xI1VDQBk2-25" value="&lt;font style=&quot;font-size: 20px;&quot;&gt;Aeneas&lt;/font&gt;" style="rounded=0;whiteSpace=wrap;html=1;fontSize=15;fillColor=#b0e3e6;strokeColor=#0e8088;" parent="1" vertex="1">
          <mxGeometry x="852.5" y="583" width="109" height="44" as="geometry" />
        </mxCell>
        <mxCell id="MSEIYFs3sw8xI1VDQBk2-26" value="" style="endArrow=classic;html=1;rounded=0;fontSize=15;fontColor=#000000;fillColor=#fad7ac;strokeColor=#000000;entryX=1;entryY=0.5;entryDx=0;entryDy=0;entryPerimeter=0;strokeWidth=2;" parent="1" edge="1">
          <mxGeometry width="50" height="50" relative="1" as="geometry">
            <mxPoint x="926" y="650" as="sourcePoint" />
            <mxPoint x="542" y="691.9899999999998" as="targetPoint" />
            <Array as="points">
              <mxPoint x="926" y="650" />
              <mxPoint x="926" y="690" />
              <mxPoint x="706" y="692" />
            </Array>
          </mxGeometry>
        </mxCell>
        <mxCell id="MSEIYFs3sw8xI1VDQBk2-27" value="" style="endArrow=classic;html=1;rounded=0;fontSize=18;fontColor=#FF0000;fillColor=#fad7ac;strokeColor=#000000;entryX=1.021;entryY=0.848;entryDx=0;entryDy=0;entryPerimeter=0;exitX=0.567;exitY=0.96;exitDx=0;exitDy=0;exitPerimeter=0;strokeWidth=2;" parent="1" source="MSEIYFs3sw8xI1VDQBk2-22" edge="1">
          <mxGeometry width="50" height="50" relative="1" as="geometry">
            <mxPoint x="1406" y="660" as="sourcePoint" />
            <mxPoint x="543.029" y="709.3899999999999" as="targetPoint" />
            <Array as="points">
              <mxPoint x="1289" y="710" />
              <mxPoint x="1086" y="710" />
            </Array>
          </mxGeometry>
        </mxCell>
        <mxCell id="MSEIYFs3sw8xI1VDQBk2-28" value="Cloud" style="text;html=1;strokeColor=none;fillColor=none;align=center;verticalAlign=middle;whiteSpace=wrap;rounded=0;fontSize=25;fontColor=#0072CE;fontStyle=1" parent="1" vertex="1">
          <mxGeometry x="1168.5" y="476.99" width="230" height="30" as="geometry" />
        </mxCell>
        <mxCell id="MSEIYFs3sw8xI1VDQBk2-29" value="&lt;font style=&quot;font-size: 20px;&quot;&gt;Aeneas&lt;/font&gt;" style="rounded=0;whiteSpace=wrap;html=1;fontSize=15;fillColor=#b0e3e6;strokeColor=#0e8088;" parent="1" vertex="1">
          <mxGeometry x="1229" y="572.99" width="109" height="44" as="geometry" />
        </mxCell>
        <mxCell id="MSEIYFs3sw8xI1VDQBk2-30" value="" style="endArrow=classic;html=1;rounded=0;fontSize=20;fontColor=#FF0000;entryX=-0.033;entryY=0.408;entryDx=0;entryDy=0;strokeWidth=2;entryPerimeter=0;" parent="1" target="MSEIYFs3sw8xI1VDQBk2-15" edge="1">
          <mxGeometry width="50" height="50" relative="1" as="geometry">
            <mxPoint x="86" y="490" as="sourcePoint" />
            <mxPoint x="286" y="520" as="targetPoint" />
            <Array as="points">
              <mxPoint x="206" y="490" />
              <mxPoint x="206" y="637" />
            </Array>
          </mxGeometry>
        </mxCell>
        <mxCell id="MSEIYFs3sw8xI1VDQBk2-31" value="&lt;br&gt;&lt;b&gt;&lt;br&gt;&lt;/b&gt;" style="edgeLabel;html=1;align=center;verticalAlign=middle;resizable=0;points=[];fontSize=20;" parent="MSEIYFs3sw8xI1VDQBk2-30" vertex="1" connectable="0">
          <mxGeometry x="-0.1859" relative="1" as="geometry">
            <mxPoint y="-1" as="offset" />
          </mxGeometry>
        </mxCell>
        <mxCell id="MSEIYFs3sw8xI1VDQBk2-32" value="" style="endArrow=classic;html=1;rounded=0;fontSize=20;strokeWidth=2;" parent="1" edge="1">
          <mxGeometry width="50" height="50" relative="1" as="geometry">
            <mxPoint x="356" y="666" as="sourcePoint" />
            <mxPoint x="86" y="770" as="targetPoint" />
            <Array as="points">
              <mxPoint x="206" y="666" />
              <mxPoint x="206" y="770" />
            </Array>
          </mxGeometry>
        </mxCell>
        <mxCell id="MSEIYFs3sw8xI1VDQBk2-33" value="&lt;br&gt;" style="edgeLabel;html=1;align=center;verticalAlign=middle;resizable=0;points=[];fontSize=18;fontColor=#FF0000;" parent="MSEIYFs3sw8xI1VDQBk2-32" vertex="1" connectable="0">
          <mxGeometry x="-0.3814" y="2" relative="1" as="geometry">
            <mxPoint as="offset" />
          </mxGeometry>
        </mxCell>
        <mxCell id="MSEIYFs3sw8xI1VDQBk2-34" value="" style="endArrow=classic;html=1;rounded=0;strokeWidth=2;exitX=0.636;exitY=-0.001;exitDx=0;exitDy=0;exitPerimeter=0;" parent="1" source="MSEIYFs3sw8xI1VDQBk2-15" edge="1">
          <mxGeometry width="50" height="50" relative="1" as="geometry">
            <mxPoint x="406" y="610" as="sourcePoint" />
            <mxPoint x="470" y="605" as="targetPoint" />
            <Array as="points">
              <mxPoint x="406" y="605" />
            </Array>
          </mxGeometry>
        </mxCell>
        <mxCell id="MSEIYFs3sw8xI1VDQBk2-35" value="" style="endArrow=classic;html=1;rounded=0;strokeWidth=2;exitX=0;exitY=0.5;exitDx=0;exitDy=0;exitPerimeter=0;entryX=0.604;entryY=1.011;entryDx=0;entryDy=0;entryPerimeter=0;" parent="1" target="MSEIYFs3sw8xI1VDQBk2-15" edge="1">
          <mxGeometry width="50" height="50" relative="1" as="geometry">
            <mxPoint x="493" y="691.9899999999998" as="sourcePoint" />
            <mxPoint x="426" y="660" as="targetPoint" />
            <Array as="points">
              <mxPoint x="404" y="692" />
            </Array>
          </mxGeometry>
        </mxCell>
        <mxCell id="MSEIYFs3sw8xI1VDQBk2-36" value="&lt;font style=&quot;font-size: 20px;&quot;&gt;30 words with alignment&lt;/font&gt;" style="text;html=1;strokeColor=none;fillColor=none;align=center;verticalAlign=middle;whiteSpace=wrap;rounded=0;fontSize=18;fontColor=#000000;" parent="1" vertex="1">
          <mxGeometry x="613" y="670" width="225.5" height="20" as="geometry" />
        </mxCell>
        <mxCell id="MSEIYFs3sw8xI1VDQBk2-38" value="&lt;font style=&quot;font-size: 20px;&quot;&gt;70 words with alignment&lt;/font&gt;" style="text;html=1;strokeColor=none;fillColor=none;align=center;verticalAlign=middle;whiteSpace=wrap;rounded=0;fontSize=18;fontColor=#000000;" parent="1" vertex="1">
          <mxGeometry x="608.25" y="750" width="228.5" height="20" as="geometry" />
        </mxCell>
        <mxCell id="MSEIYFs3sw8xI1VDQBk2-41" value="" style="verticalLabelPosition=bottom;html=1;verticalAlign=top;align=center;strokeColor=#b46504;fillColor=#fad7ac;shape=mxgraph.azure.cloud_services_configuration_file;pointerEvents=1;" parent="1" vertex="1">
          <mxGeometry x="492.5" y="670" width="50" height="50" as="geometry" />
        </mxCell>
        <mxCell id="MSEIYFs3sw8xI1VDQBk2-43" value="" style="shadow=0;dashed=0;html=1;strokeColor=#10739e;fillColor=#b1ddf0;labelPosition=center;verticalLabelPosition=bottom;verticalAlign=top;align=center;outlineConnect=0;shape=mxgraph.veeam.audio_file;" parent="1" vertex="1">
          <mxGeometry x="480" y="581.51" width="34.8" height="43.98" as="geometry" />
        </mxCell>
        <mxCell id="MSEIYFs3sw8xI1VDQBk2-44" value="" style="verticalLabelPosition=bottom;html=1;verticalAlign=top;align=center;strokeColor=#10739e;fillColor=#b1ddf0;shape=mxgraph.azure.cloud_services_configuration_file;pointerEvents=1;" parent="1" vertex="1">
          <mxGeometry x="530.25" y="583" width="37.5" height="40" as="geometry" />
        </mxCell>
        <mxCell id="MSEIYFs3sw8xI1VDQBk2-45" value="" style="rounded=0;whiteSpace=wrap;html=1;fillColor=none;" parent="1" vertex="1">
          <mxGeometry x="669.5" y="350" width="70" height="39.98" as="geometry" />
        </mxCell>
        <mxCell id="MSEIYFs3sw8xI1VDQBk2-46" value="" style="shadow=0;dashed=0;html=1;strokeColor=#10739e;fillColor=#b1ddf0;labelPosition=center;verticalLabelPosition=bottom;verticalAlign=top;align=center;outlineConnect=0;shape=mxgraph.veeam.audio_file;" parent="1" vertex="1">
          <mxGeometry x="679.3199999999999" y="356.5" width="23.18" height="26.97" as="geometry" />
        </mxCell>
        <mxCell id="MSEIYFs3sw8xI1VDQBk2-47" value="" style="verticalLabelPosition=bottom;html=1;verticalAlign=top;align=center;strokeColor=#10739e;fillColor=#b1ddf0;shape=mxgraph.azure.cloud_services_configuration_file;pointerEvents=1;" parent="1" vertex="1">
          <mxGeometry x="712.5" y="356.5" width="20" height="26.97" as="geometry" />
        </mxCell>
        <mxCell id="MSEIYFs3sw8xI1VDQBk2-49" value="10 samples,&lt;br style=&quot;border-color: var(--border-color); font-size: 20px;&quot;&gt;&lt;span style=&quot;font-size: 20px;&quot;&gt;30 words&lt;/span&gt;" style="text;html=1;strokeColor=none;fillColor=none;align=center;verticalAlign=middle;whiteSpace=wrap;rounded=0;fontSize=20;fontColor=#000000;" parent="1" vertex="1">
          <mxGeometry x="636.75" y="563.49" width="135.5" height="43.01" as="geometry" />
        </mxCell>
        <mxCell id="MSEIYFs3sw8xI1VDQBk2-50" value="" style="rounded=0;whiteSpace=wrap;html=1;fillColor=none;" parent="1" vertex="1">
          <mxGeometry x="671" y="520" width="70" height="39.98" as="geometry" />
        </mxCell>
        <mxCell id="MSEIYFs3sw8xI1VDQBk2-51" value="" style="shadow=0;dashed=0;html=1;strokeColor=#10739e;fillColor=#b1ddf0;labelPosition=center;verticalLabelPosition=bottom;verticalAlign=top;align=center;outlineConnect=0;shape=mxgraph.veeam.audio_file;" parent="1" vertex="1">
          <mxGeometry x="680.8199999999999" y="526.5" width="23.18" height="26.97" as="geometry" />
        </mxCell>
        <mxCell id="MSEIYFs3sw8xI1VDQBk2-52" value="" style="verticalLabelPosition=bottom;html=1;verticalAlign=top;align=center;strokeColor=#10739e;fillColor=#b1ddf0;shape=mxgraph.azure.cloud_services_configuration_file;pointerEvents=1;" parent="1" vertex="1">
          <mxGeometry x="714" y="526.5" width="20" height="26.97" as="geometry" />
        </mxCell>
        <mxCell id="MSEIYFs3sw8xI1VDQBk2-53" value="" style="verticalLabelPosition=bottom;html=1;verticalAlign=top;align=center;strokeColor=#b46504;fillColor=#fad7ac;shape=mxgraph.azure.cloud_services_configuration_file;pointerEvents=1;" parent="1" vertex="1">
          <mxGeometry x="698.75" y="718" width="24" height="24" as="geometry" />
        </mxCell>
        <mxCell id="MSEIYFs3sw8xI1VDQBk2-54" value="" style="verticalLabelPosition=bottom;html=1;verticalAlign=top;align=center;strokeColor=#b46504;fillColor=#fad7ac;shape=mxgraph.azure.cloud_services_configuration_file;pointerEvents=1;" parent="1" vertex="1">
          <mxGeometry x="698.75" y="642.99" width="24" height="24" as="geometry" />
        </mxCell>
      </root>
    </mxGraphModel>
  </diagram>
</mxfile>
